<?xml version="1.0" encoding="UTF-8" standalone="no"?>
<!DOCTYPE svg PUBLIC "-//W3C//DTD SVG 1.1//EN"
 "http://www.w3.org/Graphics/SVG/1.1/DTD/svg11.dtd">
<!-- Generated by graphviz version 2.38.0 (20140413.2041)
 -->
<!-- Title: G Pages: 1 -->
<svg width="680pt" height="404pt"
 viewBox="0.00 0.00 680.00 404.00" xmlns="http://www.w3.org/2000/svg" xmlns:xlink="http://www.w3.org/1999/xlink">
<g id="graph0" class="graph" transform="scale(1 1) rotate(0) translate(4 400)">
<title>G</title>
<polygon fill="white" stroke="none" points="-4,4 -4,-400 676,-400 676,4 -4,4"/>
<!-- ds -->
<g id="node1" class="node"><title>ds</title>
<ellipse fill="none" stroke="black" cx="327" cy="-18" rx="75.2868" ry="18"/>
<text text-anchor="middle" x="327" y="-14.3" font-family="Times,serif" font-size="14.00">数据结构与算法</text>
</g>
<!-- os -->
<g id="node2" class="node"><title>os</title>
<ellipse fill="none" stroke="black" cx="232" cy="-90" rx="48.1917" ry="18"/>
<text text-anchor="middle" x="232" y="-86.3" font-family="Times,serif" font-size="14.00">操作系统</text>
</g>
<!-- os&#45;&gt;ds -->
<g id="edge32" class="edge"><title>os&#45;&gt;ds</title>
<path fill="none" stroke="black" d="M253.084,-73.4647C265.97,-63.9697 282.659,-51.6723 296.918,-41.1659"/>
<polygon fill="black" stroke="black" points="299.011,-43.9713 304.985,-35.2216 294.858,-38.3359 299.011,-43.9713"/>
</g>
<!-- compile -->
<g id="node3" class="node"><title>compile</title>
<ellipse fill="none" stroke="black" cx="118" cy="-90" rx="48.1917" ry="18"/>
<text text-anchor="middle" x="118" y="-86.3" font-family="Times,serif" font-size="14.00">编译原理</text>
</g>
<!-- compile&#45;&gt;ds -->
<g id="edge33" class="edge"><title>compile&#45;&gt;ds</title>
<path fill="none" stroke="black" d="M152.512,-77.4409C185.931,-66.2479 237.024,-49.1354 275.299,-36.316"/>
<polygon fill="black" stroke="black" points="276.861,-39.4842 285.232,-32.9894 274.638,-32.8466 276.861,-39.4842"/>
</g>
<!-- vbox -->
<g id="node4" class="node"><title>vbox</title>
<ellipse fill="none" stroke="black" cx="66" cy="-162" rx="38.1938" ry="18"/>
<text text-anchor="middle" x="66" y="-158.3" font-family="Times,serif" font-size="14.00">虚拟机</text>
</g>
<!-- vbox&#45;&gt;ds -->
<g id="edge24" class="edge"><title>vbox&#45;&gt;ds</title>
<path fill="none" stroke="black" d="M58.9124,-144.155C51.9039,-124.53 44.4113,-92.22 61,-72 83.9868,-43.9813 175.502,-30.4952 244.824,-24.1952"/>
<polygon fill="black" stroke="black" points="245.222,-27.6739 254.88,-23.317 244.613,-20.7004 245.222,-27.6739"/>
</g>
<!-- vbox&#45;&gt;os -->
<g id="edge25" class="edge"><title>vbox&#45;&gt;os</title>
<path fill="none" stroke="black" d="M93.7847,-149.284C120.602,-137.975 161.494,-120.732 191.849,-107.931"/>
<polygon fill="black" stroke="black" points="193.449,-111.055 201.304,-103.944 190.729,-104.605 193.449,-111.055"/>
</g>
<!-- vbox&#45;&gt;compile -->
<g id="edge26" class="edge"><title>vbox&#45;&gt;compile</title>
<path fill="none" stroke="black" d="M78.0605,-144.765C84.4652,-136.143 92.4719,-125.365 99.6316,-115.727"/>
<polygon fill="black" stroke="black" points="102.49,-117.748 105.644,-107.633 96.8709,-113.574 102.49,-117.748"/>
</g>
<!-- cache -->
<g id="node5" class="node"><title>cache</title>
<ellipse fill="none" stroke="black" cx="207" cy="-162" rx="29.4969" ry="18"/>
<text text-anchor="middle" x="207" y="-158.3" font-family="Times,serif" font-size="14.00">缓存</text>
</g>
<!-- cache&#45;&gt;ds -->
<g id="edge27" class="edge"><title>cache&#45;&gt;ds</title>
<path fill="none" stroke="black" d="M230.205,-150.72C248.288,-141.701 272.942,-127.054 289,-108 304.256,-89.8976 314.23,-64.7597 320.115,-45.8155"/>
<polygon fill="black" stroke="black" points="323.534,-46.592 322.971,-36.0121 316.813,-44.6339 323.534,-46.592"/>
</g>
<!-- network -->
<g id="node6" class="node"><title>network</title>
<ellipse fill="none" stroke="black" cx="283" cy="-162" rx="29.4969" ry="18"/>
<text text-anchor="middle" x="283" y="-158.3" font-family="Times,serif" font-size="14.00">网络</text>
</g>
<!-- network&#45;&gt;ds -->
<g id="edge28" class="edge"><title>network&#45;&gt;ds</title>
<path fill="none" stroke="black" d="M297.6,-146.177C306.377,-136.251 316.819,-122.405 322,-108 329.103,-88.2501 330.084,-64.4476 329.435,-46.4294"/>
<polygon fill="black" stroke="black" points="332.922,-46.0984 328.88,-36.305 325.933,-46.4816 332.922,-46.0984"/>
</g>
<!-- network&#45;&gt;os -->
<g id="edge29" class="edge"><title>network&#45;&gt;os</title>
<path fill="none" stroke="black" d="M271.427,-145.116C265.154,-136.505 257.258,-125.667 250.183,-115.957"/>
<polygon fill="black" stroke="black" points="252.956,-113.819 244.238,-107.797 247.298,-117.941 252.956,-113.819"/>
</g>
<!-- database -->
<g id="node7" class="node"><title>database</title>
<ellipse fill="none" stroke="black" cx="387" cy="-162" rx="38.1938" ry="18"/>
<text text-anchor="middle" x="387" y="-158.3" font-family="Times,serif" font-size="14.00">数据库</text>
</g>
<!-- database&#45;&gt;ds -->
<g id="edge30" class="edge"><title>database&#45;&gt;ds</title>
<path fill="none" stroke="black" d="M379.882,-144.153C369.608,-119.838 350.518,-74.6598 338.304,-45.753"/>
<polygon fill="black" stroke="black" points="341.412,-44.117 334.296,-36.2678 334.964,-46.8416 341.412,-44.117"/>
</g>
<!-- language -->
<g id="node8" class="node"><title>language</title>
<ellipse fill="none" stroke="black" cx="578" cy="-162" rx="48.1917" ry="18"/>
<text text-anchor="middle" x="578" y="-158.3" font-family="Times,serif" font-size="14.00">编程语言</text>
</g>
<!-- language&#45;&gt;ds -->
<g id="edge31" class="edge"><title>language&#45;&gt;ds</title>
<path fill="none" stroke="black" d="M567.105,-144.43C553.149,-124.459 527.13,-91.1983 497,-72 466.402,-52.5033 428.131,-39.7439 395.652,-31.642"/>
<polygon fill="black" stroke="black" points="396.314,-28.2016 385.774,-29.2749 394.683,-35.0089 396.314,-28.2016"/>
</g>
<!-- framekwork_tools -->
<g id="node9" class="node"><title>framekwork_tools</title>
<ellipse fill="none" stroke="black" cx="511" cy="-234" rx="57.3905" ry="18"/>
<text text-anchor="middle" x="511" y="-230.3" font-family="Times,serif" font-size="14.00">框架与工具</text>
</g>
<!-- framekwork_tools&#45;&gt;ds -->
<g id="edge22" class="edge"><title>framekwork_tools&#45;&gt;ds</title>
<path fill="none" stroke="black" d="M496.562,-216.208C464.181,-178.548 385.653,-87.2164 347.921,-43.3325"/>
<polygon fill="black" stroke="black" points="350.545,-41.0149 341.371,-35.7142 345.237,-45.5787 350.545,-41.0149"/>
</g>
<!-- framekwork_tools&#45;&gt;language -->
<g id="edge23" class="edge"><title>framekwork_tools&#45;&gt;language</title>
<path fill="none" stroke="black" d="M526.878,-216.411C535.306,-207.606 545.813,-196.628 555.106,-186.919"/>
<polygon fill="black" stroke="black" points="557.85,-189.114 562.236,-179.47 552.793,-184.274 557.85,-189.114"/>
</g>
<!-- distributed_system -->
<g id="node10" class="node"><title>distributed_system</title>
<ellipse fill="none" stroke="black" cx="265" cy="-234" rx="57.3905" ry="18"/>
<text text-anchor="middle" x="265" y="-230.3" font-family="Times,serif" font-size="14.00">分布式系统</text>
</g>
<!-- distributed_system&#45;&gt;cache -->
<g id="edge19" class="edge"><title>distributed_system&#45;&gt;cache</title>
<path fill="none" stroke="black" d="M251.255,-216.411C243.822,-207.441 234.521,-196.215 226.366,-186.373"/>
<polygon fill="black" stroke="black" points="228.927,-183.978 219.852,-178.511 223.537,-188.444 228.927,-183.978"/>
</g>
<!-- distributed_system&#45;&gt;network -->
<g id="edge20" class="edge"><title>distributed_system&#45;&gt;network</title>
<path fill="none" stroke="black" d="M269.449,-215.697C271.455,-207.898 273.869,-198.509 276.101,-189.829"/>
<polygon fill="black" stroke="black" points="279.501,-190.661 278.602,-180.104 272.722,-188.918 279.501,-190.661"/>
</g>
<!-- distributed_system&#45;&gt;database -->
<g id="edge21" class="edge"><title>distributed_system&#45;&gt;database</title>
<path fill="none" stroke="black" d="M291.172,-217.983C309.873,-207.253 335.141,-192.755 355.035,-181.341"/>
<polygon fill="black" stroke="black" points="356.823,-184.35 363.754,-176.338 353.339,-178.279 356.823,-184.35"/>
</g>
<!-- framework_design -->
<g id="node11" class="node"><title>framework_design</title>
<ellipse fill="none" stroke="black" cx="341" cy="-306" rx="57.3905" ry="18"/>
<text text-anchor="middle" x="341" y="-302.3" font-family="Times,serif" font-size="14.00">框架与设计</text>
</g>
<!-- framework_design&#45;&gt;framekwork_tools -->
<g id="edge17" class="edge"><title>framework_design&#45;&gt;framekwork_tools</title>
<path fill="none" stroke="black" d="M374.181,-291.337C401.007,-280.291 438.967,-264.661 468.1,-252.665"/>
<polygon fill="black" stroke="black" points="469.698,-255.792 477.612,-248.748 467.033,-249.319 469.698,-255.792"/>
</g>
<!-- framework_design&#45;&gt;distributed_system -->
<g id="edge18" class="edge"><title>framework_design&#45;&gt;distributed_system</title>
<path fill="none" stroke="black" d="M323.373,-288.765C313.493,-279.665 301.004,-268.162 290.116,-258.134"/>
<polygon fill="black" stroke="black" points="292.258,-255.348 282.531,-251.147 287.516,-260.497 292.258,-255.348"/>
</g>
<!-- performance -->
<g id="node12" class="node"><title>performance</title>
<ellipse fill="none" stroke="black" cx="199" cy="-378" rx="29.4969" ry="18"/>
<text text-anchor="middle" x="199" y="-374.3" font-family="Times,serif" font-size="14.00">性能</text>
</g>
<!-- performance&#45;&gt;ds -->
<g id="edge2" class="edge"><title>performance&#45;&gt;ds</title>
<path fill="none" stroke="black" d="M171.747,-371.069C117.246,-357.431 0,-318.4 0,-235 0,-235 0,-235 0,-161 0,-116.268 11.0138,-98.5703 47,-72 78.2018,-48.9623 176.213,-34.2633 247.494,-26.3303"/>
<polygon fill="black" stroke="black" points="248.243,-29.7696 257.806,-25.2088 247.486,-22.8107 248.243,-29.7696"/>
</g>
<!-- performance&#45;&gt;os -->
<g id="edge1" class="edge"><title>performance&#45;&gt;os</title>
<path fill="none" stroke="black" d="M182.408,-363.113C172.106,-353.367 159.766,-339.37 154,-324 137.139,-279.057 147.762,-263.715 153,-216 156.577,-183.415 152.005,-172.031 169,-144 176.558,-131.533 188.095,-120.587 199.24,-111.929"/>
<polygon fill="black" stroke="black" points="201.634,-114.513 207.614,-105.767 197.485,-108.875 201.634,-114.513"/>
</g>
<!-- performance&#45;&gt;vbox -->
<g id="edge3" class="edge"><title>performance&#45;&gt;vbox</title>
<path fill="none" stroke="black" d="M171.474,-371.301C146.114,-364.533 109.546,-350.634 90,-324 61.108,-284.631 60.2851,-225.055 62.802,-190.489"/>
<polygon fill="black" stroke="black" points="66.317,-190.47 63.7052,-180.202 59.3438,-189.857 66.317,-190.47"/>
</g>
<!-- performance&#45;&gt;cache -->
<g id="edge4" class="edge"><title>performance&#45;&gt;cache</title>
<path fill="none" stroke="black" d="M186.041,-361.425C178.584,-351.418 169.933,-337.757 166,-324 152.806,-277.849 150.482,-261.422 166,-216 169.859,-204.706 177.209,-193.952 184.633,-185.119"/>
<polygon fill="black" stroke="black" points="187.313,-187.373 191.374,-177.587 182.097,-182.705 187.313,-187.373"/>
</g>
<!-- performance&#45;&gt;network -->
<g id="edge5" class="edge"><title>performance&#45;&gt;network</title>
<path fill="none" stroke="black" d="M194.014,-360.174C185.908,-329.362 173.219,-262.75 199,-216 204.948,-205.214 230.416,-189.961 251.766,-178.586"/>
<polygon fill="black" stroke="black" points="253.653,-181.549 260.897,-173.818 250.413,-175.344 253.653,-181.549"/>
</g>
<!-- performance&#45;&gt;database -->
<g id="edge6" class="edge"><title>performance&#45;&gt;database</title>
<path fill="none" stroke="black" d="M211.475,-361.305C229.247,-339.141 261.224,-300.026 275,-288 297.29,-268.542 310.18,-273.023 331,-252 349.352,-233.469 364.661,-207.903 374.608,-188.926"/>
<polygon fill="black" stroke="black" points="377.766,-190.437 379.179,-179.937 371.527,-187.264 377.766,-190.437"/>
</g>
<!-- performance&#45;&gt;language -->
<g id="edge7" class="edge"><title>performance&#45;&gt;language</title>
<path fill="none" stroke="black" d="M227.536,-373.623C274.325,-367.486 369.772,-352.428 446,-324 508.249,-300.785 542.857,-308.992 577,-252 588.071,-233.52 587.38,-208.773 584.455,-190.065"/>
<polygon fill="black" stroke="black" points="587.873,-189.299 582.604,-180.107 580.991,-190.578 587.873,-189.299"/>
</g>
<!-- performance&#45;&gt;framekwork_tools -->
<g id="edge8" class="edge"><title>performance&#45;&gt;framekwork_tools</title>
<path fill="none" stroke="black" d="M227.716,-373.884C269.254,-368.471 347.627,-354.81 407,-324 438.984,-307.403 469.565,-279.244 489.184,-259.042"/>
<polygon fill="black" stroke="black" points="491.786,-261.385 496.147,-251.729 486.716,-256.558 491.786,-261.385"/>
</g>
<!-- performance&#45;&gt;distributed_system -->
<g id="edge9" class="edge"><title>performance&#45;&gt;distributed_system</title>
<path fill="none" stroke="black" d="M206.7,-360.433C218.065,-335.981 239.435,-290.004 252.905,-261.023"/>
<polygon fill="black" stroke="black" points="256.103,-262.445 257.144,-251.902 249.755,-259.495 256.103,-262.445"/>
</g>
<!-- performance&#45;&gt;framework_design -->
<g id="edge10" class="edge"><title>performance&#45;&gt;framework_design</title>
<path fill="none" stroke="black" d="M221.188,-366.062C242.863,-355.378 276.301,-338.894 302.35,-326.053"/>
<polygon fill="black" stroke="black" points="304.156,-329.065 311.578,-321.504 301.061,-322.786 304.156,-329.065"/>
</g>
<!-- functions -->
<g id="node13" class="node"><title>functions</title>
<ellipse fill="none" stroke="black" cx="559" cy="-378" rx="29.4969" ry="18"/>
<text text-anchor="middle" x="559" y="-374.3" font-family="Times,serif" font-size="14.00">功能</text>
</g>
<!-- functions&#45;&gt;ds -->
<g id="edge16" class="edge"><title>functions&#45;&gt;ds</title>
<path fill="none" stroke="black" d="M578.942,-364.629C611.382,-342.788 672,-294.074 672,-235 672,-235 672,-235 672,-161 672,-101.354 493.434,-54.0338 393.234,-32.1759"/>
<polygon fill="black" stroke="black" points="393.711,-28.6984 383.198,-30.0145 392.237,-35.5415 393.711,-28.6984"/>
</g>
<!-- functions&#45;&gt;network -->
<g id="edge11" class="edge"><title>functions&#45;&gt;network</title>
<path fill="none" stroke="black" d="M538.944,-364.745C522.294,-354.367 498.162,-338.849 478,-324 413.751,-276.681 342.439,-215.398 306.48,-183.831"/>
<polygon fill="black" stroke="black" points="308.764,-181.179 298.946,-177.198 304.138,-186.433 308.764,-181.179"/>
</g>
<!-- functions&#45;&gt;database -->
<g id="edge15" class="edge"><title>functions&#45;&gt;database</title>
<path fill="none" stroke="black" d="M545.258,-361.867C529.158,-344.146 501.671,-313.916 478,-288 463.362,-271.974 458.304,-269.15 445,-252 429.117,-231.524 413.197,-206.714 402.065,-188.496"/>
<polygon fill="black" stroke="black" points="404.873,-186.376 396.706,-179.628 398.882,-189.997 404.873,-186.376"/>
</g>
<!-- functions&#45;&gt;language -->
<g id="edge14" class="edge"><title>functions&#45;&gt;language</title>
<path fill="none" stroke="black" d="M568.082,-360.66C580.45,-337.38 601.97,-292.94 610,-252 613.08,-236.299 614.292,-231.414 610,-216 607.29,-206.267 602.255,-196.536 596.969,-188.117"/>
<polygon fill="black" stroke="black" points="599.708,-185.917 591.232,-179.56 593.893,-189.815 599.708,-185.917"/>
</g>
<!-- functions&#45;&gt;framekwork_tools -->
<g id="edge13" class="edge"><title>functions&#45;&gt;framekwork_tools</title>
<path fill="none" stroke="black" d="M561.072,-359.951C562.629,-341.541 563.151,-311.673 554,-288 549.921,-277.447 542.902,-267.393 535.705,-258.934"/>
<polygon fill="black" stroke="black" points="538.145,-256.414 528.84,-251.348 532.955,-261.111 538.145,-256.414"/>
</g>
<!-- functions&#45;&gt;framework_design -->
<g id="edge12" class="edge"><title>functions&#45;&gt;framework_design</title>
<path fill="none" stroke="black" d="M533.566,-368.833C498.272,-357.5 433.766,-336.787 389.199,-322.477"/>
<polygon fill="black" stroke="black" points="390.042,-319.071 379.451,-319.347 387.902,-325.736 390.042,-319.071"/>
</g>
</g>
</svg>
