<?xml version="1.0" encoding="UTF-8" standalone="no"?>
<!DOCTYPE svg PUBLIC "-//W3C//DTD SVG 1.1//EN"
 "http://www.w3.org/Graphics/SVG/1.1/DTD/svg11.dtd">
<!-- Generated by graphviz version 2.38.0 (20140413.2041)
 -->
<!-- Title: G Pages: 1 -->
<svg width="331pt" height="279pt"
 viewBox="0.00 0.00 331.05 279.25" xmlns="http://www.w3.org/2000/svg" xmlns:xlink="http://www.w3.org/1999/xlink">
<g id="graph0" class="graph" transform="scale(1 1) rotate(0) translate(4 275.25)">
<title>G</title>
<polygon fill="white" stroke="none" points="-4,4 -4,-275.25 327.045,-275.25 327.045,4 -4,4"/>
<g id="clust1" class="cluster"><title>cluster_linking</title>
<polygon fill="lightgrey" stroke="lightgrey" points="89.598,-8 89.598,-263.25 205.598,-263.25 205.598,-8 89.598,-8"/>
<text text-anchor="middle" x="147.598" y="-248.05" font-family="Times,serif" font-size="14.00">链接(Linking)</text>
</g>
<!-- loading -->
<g id="node1" class="node"><title>loading</title>
<ellipse fill="skyblue" stroke="skyblue" cx="39.598" cy="-124.125" rx="39.6962" ry="24.0833"/>
<text text-anchor="middle" x="39.598" y="-127.525" font-family="Times,serif" font-size="12.00">加载</text>
<text text-anchor="middle" x="39.598" y="-114.525" font-family="Times,serif" font-size="12.00">Loading</text>
</g>
<!-- verification -->
<g id="node5" class="node"><title>verification</title>
<ellipse fill="skyblue" stroke="skyblue" cx="146.598" cy="-40.0416" rx="49.4949" ry="24.0833"/>
<text text-anchor="middle" x="146.598" y="-43.4416" font-family="Times,serif" font-size="12.00">验证</text>
<text text-anchor="middle" x="146.598" y="-30.4416" font-family="Times,serif" font-size="12.00">Verfication</text>
</g>
<!-- loading&#45;&gt;verification -->
<g id="edge1" class="edge"><title>loading&#45;&gt;verification</title>
<path fill="none" stroke="darkgreen" d="M39.598,-99.7925C39.598,-74.9472 39.598,-40 39.598,-40 39.598,-40 86.8569,-40 86.8569,-40"/>
<polygon fill="darkgreen" stroke="darkgreen" points="86.857,-43.5001 96.8569,-40 86.8569,-36.5001 86.857,-43.5001"/>
</g>
<!-- initialization -->
<g id="node2" class="node"><title>initialization</title>
<ellipse fill="skyblue" stroke="skyblue" cx="268.598" cy="-208.208" rx="54.3945" ry="24.0833"/>
<text text-anchor="middle" x="268.598" y="-211.608" font-family="Times,serif" font-size="12.00">初始化</text>
<text text-anchor="middle" x="268.598" y="-198.608" font-family="Times,serif" font-size="12.00">Initialazation</text>
</g>
<!-- using -->
<g id="node3" class="node"><title>using</title>
<ellipse fill="skyblue" stroke="skyblue" cx="268.598" cy="-124.125" rx="31.6406" ry="24.0833"/>
<text text-anchor="middle" x="268.598" y="-127.525" font-family="Times,serif" font-size="12.00">使用</text>
<text text-anchor="middle" x="268.598" y="-114.525" font-family="Times,serif" font-size="12.00">Using</text>
</g>
<!-- initialization&#45;&gt;using -->
<g id="edge5" class="edge"><title>initialization&#45;&gt;using</title>
<path fill="none" stroke="darkgreen" d="M268.598,-183.888C268.598,-183.888 268.598,-158.391 268.598,-158.391"/>
<polygon fill="darkgreen" stroke="darkgreen" points="272.098,-158.391 268.598,-148.391 265.098,-158.391 272.098,-158.391"/>
</g>
<!-- unloading -->
<g id="node4" class="node"><title>unloading</title>
<ellipse fill="skyblue" stroke="skyblue" cx="268.598" cy="-40.0416" rx="47.2526" ry="24.0833"/>
<text text-anchor="middle" x="268.598" y="-43.4416" font-family="Times,serif" font-size="12.00">卸载</text>
<text text-anchor="middle" x="268.598" y="-30.4416" font-family="Times,serif" font-size="12.00">Unloading</text>
</g>
<!-- using&#45;&gt;unloading -->
<g id="edge6" class="edge"><title>using&#45;&gt;unloading</title>
<path fill="none" stroke="darkgreen" d="M268.598,-99.8045C268.598,-99.8045 268.598,-74.3073 268.598,-74.3073"/>
<polygon fill="darkgreen" stroke="darkgreen" points="272.098,-74.3073 268.598,-64.3073 265.098,-74.3074 272.098,-74.3073"/>
</g>
<!-- preparation -->
<g id="node6" class="node"><title>preparation</title>
<ellipse fill="skyblue" stroke="skyblue" cx="147.598" cy="-124.125" rx="50.41" ry="24.0833"/>
<text text-anchor="middle" x="147.598" y="-127.525" font-family="Times,serif" font-size="12.00">准备</text>
<text text-anchor="middle" x="147.598" y="-114.525" font-family="Times,serif" font-size="12.00">Preparation</text>
</g>
<!-- verification&#45;&gt;preparation -->
<g id="edge2" class="edge"><title>verification&#45;&gt;preparation</title>
<path fill="none" stroke="darkgreen" d="M146.744,-64.362C146.744,-64.362 146.744,-89.8592 146.744,-89.8592"/>
<polygon fill="darkgreen" stroke="darkgreen" points="143.245,-89.8592 146.744,-99.8592 150.245,-89.8592 143.245,-89.8592"/>
</g>
<!-- resolution -->
<g id="node7" class="node"><title>resolution</title>
<ellipse fill="skyblue" stroke="skyblue" cx="147.598" cy="-208.208" rx="48.1667" ry="24.0833"/>
<text text-anchor="middle" x="147.598" y="-211.608" font-family="Times,serif" font-size="12.00">解析</text>
<text text-anchor="middle" x="147.598" y="-198.608" font-family="Times,serif" font-size="12.00">Resolution</text>
</g>
<!-- preparation&#45;&gt;resolution -->
<g id="edge3" class="edge"><title>preparation&#45;&gt;resolution</title>
<path fill="none" stroke="darkgreen" d="M147.598,-148.445C147.598,-148.445 147.598,-173.942 147.598,-173.942"/>
<polygon fill="darkgreen" stroke="darkgreen" points="144.098,-173.942 147.598,-183.942 151.098,-173.942 144.098,-173.942"/>
</g>
<!-- resolution&#45;&gt;initialization -->
<g id="edge4" class="edge"><title>resolution&#45;&gt;initialization</title>
<path fill="none" stroke="darkgreen" d="M195.768,-208C195.768,-208 203.816,-208 203.816,-208"/>
<polygon fill="darkgreen" stroke="darkgreen" points="203.816,-211.5 213.816,-208 203.816,-204.5 203.816,-211.5"/>
</g>
</g>
</svg>
