<?xml version="1.0" encoding="UTF-8" standalone="no"?>
<!DOCTYPE svg PUBLIC "-//W3C//DTD SVG 1.1//EN"
 "http://www.w3.org/Graphics/SVG/1.1/DTD/svg11.dtd">
<!-- Generated by graphviz version 2.38.0 (20140413.2041)
 -->
<!-- Title: G Pages: 1 -->
<svg width="475pt" height="297pt"
 viewBox="0.00 0.00 474.60 297.26" xmlns="http://www.w3.org/2000/svg" xmlns:xlink="http://www.w3.org/1999/xlink">
<g id="graph0" class="graph" transform="scale(1 1) rotate(0) translate(4 293.264)">
<title>G</title>
<polygon fill="white" stroke="none" points="-4,4 -4,-293.264 470.598,-293.264 470.598,4 -4,4"/>
<g id="clust2" class="cluster"><title>cluster_linking</title>
<polygon fill="lightgray" stroke="lightgray" points="89.598,-8 89.598,-263.25 205.598,-263.25 205.598,-8 89.598,-8"/>
<text text-anchor="middle" x="147.598" y="-248.05" font-family="Times,serif" font-size="14.00">链接(Linking)</text>
</g>
<!-- loading -->
<g id="node1" class="node"><title>loading</title>
<ellipse fill="skyblue" stroke="skyblue" cx="39.598" cy="-124.125" rx="39.6962" ry="24.0833"/>
<text text-anchor="middle" x="39.598" y="-127.525" font-family="Times,serif" font-size="12.00">加载</text>
<text text-anchor="middle" x="39.598" y="-114.525" font-family="Times,serif" font-size="12.00">Loading</text>
</g>
<!-- verification -->
<g id="node7" class="node"><title>verification</title>
<ellipse fill="skyblue" stroke="skyblue" cx="146.598" cy="-40.0416" rx="49.4949" ry="24.0833"/>
<text text-anchor="middle" x="146.598" y="-43.4416" font-family="Times,serif" font-size="12.00">验证</text>
<text text-anchor="middle" x="146.598" y="-30.4416" font-family="Times,serif" font-size="12.00">Verfication</text>
</g>
<!-- loading&#45;&gt;verification -->
<g id="edge2" class="edge"><title>loading&#45;&gt;verification</title>
<path fill="none" stroke="darkgreen" d="M63.6109,-104.704C78.0924,-93.5945 96.7659,-79.2695 112.731,-67.0221"/>
<polygon fill="darkgreen" stroke="darkgreen" points="114.992,-69.6985 120.796,-60.8348 110.732,-64.1445 114.992,-69.6985"/>
</g>
<!-- initialization -->
<g id="node2" class="node"><title>initialization</title>
<ellipse fill="skyblue" stroke="skyblue" cx="268.598" cy="-208.208" rx="54.3945" ry="24.0833"/>
<text text-anchor="middle" x="268.598" y="-211.608" font-family="Times,serif" font-size="12.00">初始化</text>
<text text-anchor="middle" x="268.598" y="-198.608" font-family="Times,serif" font-size="12.00">Initialazation</text>
</g>
<!-- using -->
<g id="node3" class="node"><title>using</title>
<ellipse fill="skyblue" stroke="skyblue" cx="268.598" cy="-124.125" rx="31.6406" ry="24.0833"/>
<text text-anchor="middle" x="268.598" y="-127.525" font-family="Times,serif" font-size="12.00">使用</text>
<text text-anchor="middle" x="268.598" y="-114.525" font-family="Times,serif" font-size="12.00">Using</text>
</g>
<!-- initialization&#45;&gt;using -->
<g id="edge6" class="edge"><title>initialization&#45;&gt;using</title>
<path fill="none" stroke="darkgreen" d="M268.598,-183.906C268.598,-175.954 268.598,-166.901 268.598,-158.323"/>
<polygon fill="darkgreen" stroke="darkgreen" points="272.098,-158.201 268.598,-148.201 265.098,-158.201 272.098,-158.201"/>
</g>
<!-- clinit -->
<g id="node5" class="node"><title>clinit</title>
<polygon fill="orange" stroke="orange" points="394.598,-226.208 340.598,-226.208 340.598,-190.208 394.598,-190.208 394.598,-226.208"/>
<text text-anchor="middle" x="367.598" y="-205.108" font-family="Times,serif" font-size="12.00">&lt;clinit&gt;</text>
</g>
<!-- initialization&#45;&gt;clinit -->
<g id="edge8" class="edge"><title>initialization&#45;&gt;clinit</title>
<path fill="none" stroke="darkgreen" d="M323.125,-208.208C325.568,-208.208 328.011,-208.208 330.454,-208.208"/>
<polygon fill="darkgreen" stroke="darkgreen" points="330.497,-211.708 340.497,-208.208 330.497,-204.708 330.497,-211.708"/>
</g>
<!-- unloading -->
<g id="node4" class="node"><title>unloading</title>
<ellipse fill="skyblue" stroke="skyblue" cx="268.598" cy="-40.0416" rx="47.2526" ry="24.0833"/>
<text text-anchor="middle" x="268.598" y="-43.4416" font-family="Times,serif" font-size="12.00">卸载</text>
<text text-anchor="middle" x="268.598" y="-30.4416" font-family="Times,serif" font-size="12.00">Unloading</text>
</g>
<!-- using&#45;&gt;unloading -->
<g id="edge7" class="edge"><title>using&#45;&gt;unloading</title>
<path fill="none" stroke="darkgreen" d="M268.598,-99.8227C268.598,-91.8703 268.598,-82.8176 268.598,-74.2398"/>
<polygon fill="darkgreen" stroke="darkgreen" points="272.098,-74.118 268.598,-64.118 265.098,-74.118 272.098,-74.118"/>
</g>
<!-- static -->
<g id="node6" class="node"><title>static</title>
<polygon fill="orange" stroke="orange" points="466.598,-226.208 412.598,-226.208 412.598,-190.208 466.598,-190.208 466.598,-226.208"/>
<text text-anchor="middle" x="439.598" y="-205.108" font-family="Times,serif" font-size="12.00">static块</text>
</g>
<!-- clinit&#45;&gt;static -->
<g id="edge1" class="edge"><title>clinit&#45;&gt;static</title>
<path fill="none" stroke="darkgreen" d="M394.879,-208.208C397.336,-208.208 399.792,-208.208 402.249,-208.208"/>
<polygon fill="darkgreen" stroke="darkgreen" points="402.348,-211.708 412.347,-208.208 402.347,-204.708 402.348,-211.708"/>
</g>
<!-- static&#45;&gt;initialization -->
<g id="edge9" class="edge"><title>static&#45;&gt;initialization</title>
<path fill="none" stroke="darkgreen" d="M434.137,-226.417C427.781,-244.003 415.404,-269.63 394.598,-281.25 373.644,-292.952 362.738,-290.514 340.598,-281.25 320.176,-272.705 302.608,-255.232 289.939,-239.518"/>
<polygon fill="darkgreen" stroke="darkgreen" points="292.648,-237.301 283.771,-231.518 287.105,-241.575 292.648,-237.301"/>
</g>
<!-- preparation -->
<g id="node8" class="node"><title>preparation</title>
<ellipse fill="skyblue" stroke="skyblue" cx="147.598" cy="-124.125" rx="50.41" ry="24.0833"/>
<text text-anchor="middle" x="147.598" y="-127.525" font-family="Times,serif" font-size="12.00">准备</text>
<text text-anchor="middle" x="147.598" y="-114.525" font-family="Times,serif" font-size="12.00">Preparation</text>
</g>
<!-- verification&#45;&gt;preparation -->
<g id="edge3" class="edge"><title>verification&#45;&gt;preparation</title>
<path fill="none" stroke="darkgreen" d="M146.879,-64.118C146.976,-72.0494 147.086,-81.096 147.191,-89.6827"/>
<polygon fill="darkgreen" stroke="darkgreen" points="143.692,-89.8661 147.314,-99.8227 150.692,-89.7808 143.692,-89.8661"/>
</g>
<!-- resolution -->
<g id="node9" class="node"><title>resolution</title>
<ellipse fill="skyblue" stroke="skyblue" cx="147.598" cy="-208.208" rx="48.1667" ry="24.0833"/>
<text text-anchor="middle" x="147.598" y="-211.608" font-family="Times,serif" font-size="12.00">解析</text>
<text text-anchor="middle" x="147.598" y="-198.608" font-family="Times,serif" font-size="12.00">Resolution</text>
</g>
<!-- preparation&#45;&gt;resolution -->
<g id="edge4" class="edge"><title>preparation&#45;&gt;resolution</title>
<path fill="none" stroke="darkgreen" d="M147.598,-148.201C147.598,-156.133 147.598,-165.179 147.598,-173.766"/>
<polygon fill="darkgreen" stroke="darkgreen" points="144.098,-173.906 147.598,-183.906 151.098,-173.906 144.098,-173.906"/>
</g>
<!-- resolution&#45;&gt;initialization -->
<g id="edge5" class="edge"><title>resolution&#45;&gt;initialization</title>
<path fill="none" stroke="darkgreen" d="M195.809,-208.208C198.463,-208.208 201.116,-208.208 203.77,-208.208"/>
<polygon fill="darkgreen" stroke="darkgreen" points="204.006,-211.708 214.006,-208.208 204.006,-204.708 204.006,-211.708"/>
</g>
</g>
</svg>
